<svg version="1.1" xmlns="http://www.w3.org/2000/svg" xmlns:xlink="http://www.w3.org/1999/xlink" width="92.74466" height="54.672" viewBox="0,0,92.74466,54.672"><defs><linearGradient x1="193.62858" y1="180.0002" x2="286.37223" y2="180.0002" gradientUnits="userSpaceOnUse" id="color-1"><stop offset="0" stop-color="#3866ab"/><stop offset="1" stop-color="#210042"/></linearGradient><linearGradient x1="195.21122" y1="180.00081" x2="284.78974" y2="180.00081" gradientUnits="userSpaceOnUse" id="color-2"><stop offset="0" stop-color="#5795d4"/><stop offset="1" stop-color="#838ca8"/></linearGradient></defs><g transform="translate(-193.62767,-152.664)"><g data-paper-data="{&quot;isPaintingLayer&quot;:true}" fill-rule="nonzero" stroke="none" stroke-width="1" stroke-linecap="butt" stroke-linejoin="miter" stroke-miterlimit="10" stroke-dasharray="" stroke-dashoffset="0" style="mix-blend-mode: normal"><path d="M286.37233,198.731c0,4.752 -3.92785,8.605 -8.76988,8.605h-75.20592c-4.84305,0 -8.76886,-3.854 -8.76886,-8.605v-37.463c0,-4.752 3.92581,-8.604 8.76886,-8.604h75.20491c4.84509,0 8.76988,3.852 8.76988,8.604v37.463z" fill="url(#color-1)"/><path d="M284.78878,161.07973v37.84155c0,2.891 -2.47644,5.24258 -5.52437,5.24258h-78.52989c-3.04474,0 -5.5233,-2.35159 -5.5233,-5.24258v-37.84256c0,-2.891 2.47857,-5.24258 5.5233,-5.24258h78.52989c3.04793,0 5.52437,2.3526 5.52437,5.24359z" fill="url(#color-2)"/><text transform="translate(207.5,186) scale(0.5,0.5)" font-size="40" xml:space="preserve" fill="#000000" fill-rule="nonzero" stroke="none" stroke-width="1" stroke-linecap="butt" stroke-linejoin="miter" stroke-miterlimit="10" stroke-dasharray="" stroke-dashoffset="0" font-family="Pixel" font-weight="normal" text-anchor="start" style="mix-blend-mode: normal"><tspan x="0" dy="0">Jogar</tspan></text></g></g></svg>