<svg version="1.1" xmlns="http://www.w3.org/2000/svg" xmlns:xlink="http://www.w3.org/1999/xlink" width="93.71412" height="54.672" viewBox="0,0,93.71412,54.672"><defs><linearGradient x1="192.65914" y1="180.0002" x2="286.37224" y2="180.0002" gradientUnits="userSpaceOnUse" id="color-1"><stop offset="0.012" stop-color="#a7a9ac"/><stop offset="1" stop-color="#414042"/></linearGradient><linearGradient x1="195.13554" y1="179.9993" x2="284.12227" y2="179.9993" gradientUnits="userSpaceOnUse" id="color-2"><stop offset="0" stop-color="#d1d2d3"/><stop offset="1" stop-color="#a4a5a8"/></linearGradient></defs><g transform="translate(-192.65822,-152.664)"><g data-paper-data="{&quot;isPaintingLayer&quot;:true}" fill-rule="nonzero" stroke="none" stroke-width="1" stroke-linecap="butt" stroke-linejoin="miter" stroke-miterlimit="10" stroke-dasharray="" stroke-dashoffset="0" style="mix-blend-mode: normal"><path d="M286.37234,198.731c0,4.752 -3.96891,8.605 -8.86155,8.605h-75.99205c-4.89368,0 -8.86052,-3.854 -8.86052,-8.605v-37.463c0,-4.752 3.96684,-8.604 8.86052,-8.604h75.99102c4.89574,0 8.86155,3.852 8.86155,8.604v37.463z" fill="url(#color-1)"/><path d="M284.12132,161.268v37.462c0,2.862 -2.46008,5.19 -5.48787,5.19h-78.01109c-3.02462,0 -5.48682,-2.328 -5.48682,-5.19v-37.463c0,-2.862 2.46219,-5.19 5.48682,-5.19h78.01109c3.02779,0 5.48787,2.329 5.48787,5.191z" fill="url(#color-2)"/><text transform="translate(207.5,186) scale(0.5,0.5)" font-size="40" xml:space="preserve" fill="#000000" fill-rule="nonzero" stroke="none" stroke-width="1" stroke-linecap="butt" stroke-linejoin="miter" stroke-miterlimit="10" stroke-dasharray="" stroke-dashoffset="0" font-family="Pixel" font-weight="normal" text-anchor="start" style="mix-blend-mode: normal"><tspan x="0" dy="0">Jogar</tspan></text></g></g></svg>