<svg version="1.1" xmlns="http://www.w3.org/2000/svg" xmlns:xlink="http://www.w3.org/1999/xlink" width="178.05683" height="54.672" viewBox="0,0,178.05683,54.672"><defs><linearGradient x1="150.97334" y1="180.0002" x2="329.02822" y2="180.0002" gradientUnits="userSpaceOnUse" id="color-1"><stop offset="0" stop-color="#3866ab"/><stop offset="1" stop-color="#210042"/></linearGradient><linearGradient x1="155.67849" y1="179.9993" x2="324.75328" y2="179.9993" gradientUnits="userSpaceOnUse" id="color-2"><stop offset="0" stop-color="#5795d4"/><stop offset="1" stop-color="#838ca8"/></linearGradient></defs><g transform="translate(-150.97159,-152.664)"><g data-paper-data="{&quot;isPaintingLayer&quot;:true}" fill-rule="nonzero" stroke="none" stroke-width="1" stroke-linecap="butt" stroke-linejoin="miter" stroke-miterlimit="10" stroke-dasharray="" stroke-dashoffset="0" style="mix-blend-mode: normal"><path d="M329.02842,198.731c0,4.752 -7.54092,8.605 -16.83695,8.605h-144.38489c-9.29799,0 -16.83499,-3.854 -16.83499,-8.605v-37.463c0,-4.752 7.537,-8.604 16.83499,-8.604h144.38294c9.3019,0 16.83695,3.852 16.83695,8.604v37.463z" fill="url(#color-1)"/><path d="M324.75148,161.268v37.462c0,2.862 -4.67415,5.19 -10.42696,5.19h-148.22108c-5.74678,0 -10.42495,-2.328 -10.42495,-5.19v-37.463c0,-2.862 4.67817,-5.19 10.42495,-5.19h148.22108c5.7528,0 10.42696,2.329 10.42696,5.191z" fill="url(#color-2)"/><text transform="translate(173.75,186) scale(0.5,0.5)" font-size="40" xml:space="preserve" fill="#000000" fill-rule="nonzero" stroke="none" stroke-width="1" stroke-linecap="butt" stroke-linejoin="miter" stroke-miterlimit="10" stroke-dasharray="" stroke-dashoffset="0" font-family="Pixel" font-weight="normal" text-anchor="start" style="mix-blend-mode: normal"><tspan x="0" dy="0">Pilotar nave</tspan></text></g></g></svg>